<svg width="250" height="87" viewBox="0 0 250 87" fill="none" xmlns="http://www.w3.org/2000/svg">
<path d="M94.5513 8.39187C96.941 8.36146 99.3179 8.74694 101.576 9.53112C103.588 10.2374 105.439 11.3394 107.019 12.7724C108.548 14.1847 109.747 15.918 110.529 17.8482C111.376 19.9641 111.796 22.2276 111.763 24.5071C111.8 26.8252 111.381 29.128 110.529 31.2838C109.766 33.213 108.602 34.9579 107.115 36.4028C105.628 37.8477 103.851 38.9597 101.902 39.665C99.8006 40.45 97.5738 40.8433 95.3312 40.8257C92.9772 40.8257 90.7283 40.7864 88.5844 40.708C86.4477 40.6278 84.5086 40.5475 82.7725 40.4513V8.76627C84.5104 8.67 86.3551 8.58442 88.3066 8.50954C90.2582 8.43466 92.3398 8.39543 94.5513 8.39187ZM95.5289 33.7762C96.6168 33.781 97.6938 33.5588 98.6913 33.1237C99.6796 32.6935 100.566 32.0593 101.293 31.2624C102.066 30.4112 102.66 29.4125 103.04 28.326C103.471 27.0997 103.684 25.8072 103.67 24.5071C103.688 23.2206 103.467 21.9419 103.018 20.7364C102.613 19.6675 101.995 18.6922 101.202 17.8695C100.419 17.0738 99.4755 16.4539 98.4348 16.051C97.2984 15.6216 96.0917 15.4094 94.8771 15.4253H92.7404C92.0086 15.4253 91.2874 15.4573 90.5769 15.5162V33.7013C91.3782 33.7655 92.1795 33.7976 93.0396 33.7976L95.5289 33.7762Z" fill="white"/>
<path d="M120.683 40.3798H112.136L126.228 8.52362H133.53L147.58 40.3798H139.059L136.869 35.1649H122.825L120.683 40.3798ZM125.523 28.5059H134.22L129.855 17.9318L125.523 28.5059Z" fill="white"/>
<path d="M162.965 40.4352H155.107V15.7996H144.498V8.76624H173.574V15.7996H162.965V40.4352Z" fill="white"/>
<path d="M206.646 26.1384C206.675 28.2897 206.313 30.4283 205.577 32.4497C204.936 34.2084 203.929 35.8108 202.623 37.1512C201.304 38.4721 199.707 39.4824 197.949 40.1089C195.972 40.8161 193.884 41.1638 191.784 41.1358C189.7 41.1665 187.628 40.8185 185.668 40.1089C183.912 39.4776 182.318 38.4628 181.002 37.138C179.686 35.8132 178.682 34.2117 178.061 32.4497C177.352 30.4226 177.007 28.286 177.041 26.1384V8.76624H184.947V26.1384C184.947 28.5596 185.559 30.4369 186.784 31.7705C187.424 32.4463 188.202 32.9754 189.065 33.3216C189.928 33.6679 190.856 33.8229 191.784 33.7762C192.72 33.8197 193.654 33.6634 194.524 33.3176C195.395 32.9717 196.181 32.4444 196.833 31.7705C198.09 30.4369 198.718 28.5596 198.718 26.1384V8.76624H206.624L206.646 26.1384Z" fill="white"/>
<path d="M233.814 40.4352H228.098L220.518 25.1596L219.551 40.4352H211.901L213.531 8.76624H220.555L230.972 30.1873L241.346 8.76624H248.328L250 40.4352H242.371L241.394 25.1596L233.814 40.4352Z" fill="white"/>
<path d="M82.7993 77.9074V46.2384H90.6145V70.9702H106.149V77.9234L82.7993 77.9074Z" fill="white"/>
<path d="M116.987 77.9075H108.44L122.532 46.0513H129.808L143.857 77.9075H135.337L133.147 72.6926H119.124L116.987 77.9075ZM121.827 66.0336H130.524L126.149 55.4595L121.827 66.0336Z" fill="white"/>
<path d="M167.201 61.8885C169.083 62.2414 170.808 63.1767 172.131 64.5628C173.31 65.8252 173.958 67.4934 173.942 69.2214C173.942 72.1097 172.874 74.3365 170.737 75.9018C168.6 77.4672 165.668 78.2552 161.939 78.2659C160.977 78.2659 159.87 78.2659 158.616 78.2659C157.361 78.2659 156.079 78.2177 154.781 78.1696C153.483 78.1215 152.195 78.084 150.94 78.0519C149.685 78.0198 148.558 77.9771 147.569 77.9129V46.2386L150.774 46.1423L154.375 46.0514C155.604 46.0193 156.811 45.9979 158.007 45.9819C159.204 45.9658 160.31 45.9819 161.33 45.9819C164.93 45.9819 167.722 46.7182 169.706 48.1908C170.675 48.9022 171.454 49.8422 171.973 50.9273C172.492 52.0125 172.735 53.2092 172.682 54.4112C172.716 56.1041 172.202 57.7627 171.218 59.1394C170.229 60.4855 168.812 61.455 167.201 61.8885ZM155.385 52.3841V59.3747H160.919C162.072 59.4305 163.208 59.0741 164.124 58.3692C164.518 58.0477 164.833 57.6387 165.042 57.1746C165.252 56.7104 165.351 56.2038 165.331 55.6949C165.331 53.4913 163.672 52.3877 160.352 52.3841H155.385ZM160.967 71.8476C162.669 71.8476 163.98 71.5374 164.898 70.9169C165.348 70.6102 165.711 70.1915 165.951 69.702C166.191 69.2126 166.299 68.6691 166.266 68.125C166.284 67.6565 166.18 67.1913 165.965 66.775C165.75 66.3587 165.43 66.0056 165.037 65.7502C164.037 65.1422 162.878 64.8496 161.709 64.9105H155.385V71.7085L158.477 71.8048C159.455 71.8476 160.283 71.8476 160.967 71.8476Z" fill="white"/>
<path d="M201.479 54.7321C199.447 54.0988 197.382 53.5774 195.294 53.1703C193.686 52.8428 192.051 52.6638 190.411 52.6354C189.288 52.578 188.167 52.8023 187.152 53.2879C186.776 53.4969 186.466 53.8093 186.261 54.1883C186.056 54.5673 185.963 54.9972 185.993 55.4274C185.975 55.906 186.142 56.3732 186.458 56.7324C186.841 57.124 187.312 57.4191 187.831 57.5935C188.55 57.8639 189.287 58.082 190.037 58.2461C190.908 58.4493 191.896 58.6579 193.013 58.8772C194.511 59.1853 195.988 59.5872 197.436 60.0806C198.668 60.4953 199.829 61.0998 200.876 61.8724C201.814 62.5761 202.572 63.4927 203.087 64.5467C203.63 65.7614 203.892 67.0835 203.851 68.4137C203.884 69.9423 203.559 71.4574 202.9 72.837C202.278 74.1042 201.362 75.2043 200.229 76.0461C198.977 76.9479 197.565 77.6032 196.068 77.977C194.297 78.4288 192.474 78.6481 190.646 78.6295C188.39 78.6089 186.141 78.3833 183.926 77.9556C181.412 77.4827 178.946 76.7883 176.554 75.8803L178.322 68.9272C180.55 69.7948 182.843 70.4799 185.181 70.9757C186.873 71.3361 188.592 71.5544 190.32 71.6282C193.735 71.6889 195.441 70.7885 195.438 68.9272C195.451 68.6373 195.402 68.3479 195.294 68.0785C195.186 67.8091 195.022 67.566 194.813 67.3654C194.321 66.9352 193.752 66.603 193.135 66.3866C192.348 66.0984 191.539 65.873 190.716 65.7127C189.8 65.5237 188.848 65.3223 187.858 65.1083C186.283 64.8007 184.735 64.3715 183.226 63.8247C182.061 63.3983 180.977 62.7761 180.021 61.9847C179.19 61.2868 178.537 60.4014 178.114 59.4014C177.666 58.2594 177.452 57.039 177.484 55.8125C177.462 54.3636 177.773 52.9291 178.392 51.6192C178.991 50.3827 179.876 49.3066 180.972 48.4796C182.189 47.576 183.562 46.9035 185.021 46.4953C186.76 46.0102 188.558 45.7761 190.363 45.7999C191.431 45.7999 192.574 45.8534 193.734 45.9604C194.893 46.0674 196.036 46.2278 197.152 46.4257C198.269 46.6236 199.343 46.8643 200.358 47.1264C201.373 47.3885 202.313 47.6612 203.151 47.9394L201.479 54.7321Z" fill="white"/>
<path d="M12.3202 20.2424C18.0328 20.2424 14.681 20.2425 18.0328 20.2425V58.3265C18.0328 58.998 18.0328 59.9482 18.0328 60.5606C18.3504 60.5606 18.5045 60.5606 18.656 60.5606C24.9224 60.5606 31.2063 60.7633 37.4511 60.4677C44.4879 60.1341 50.6116 55.0409 52.6975 48.3641C53.4826 45.7926 53.6431 43.078 53.1663 40.4355C52.6896 37.793 51.5887 35.2951 49.9508 33.1399C48.313 30.9847 46.1833 29.2314 43.7304 28.0189C41.2776 26.8064 38.5691 26.168 35.8196 26.1545C33.9154 26.1164 32.0069 26.1545 29.8257 26.1545V28.266C29.8257 36.4759 29.734 46.715 29.7989 54.9249C28.9183 54.9249 29.5054 54.9249 27.8908 54.9249C24.0747 54.9249 24.6618 54.9249 24.0747 54.9249C24.0747 45.4101 24.0064 30.0892 23.9242 20.5744C24.6581 20.5744 24.3645 20.5744 25.979 20.5744C29.7952 20.5744 33.6114 20.5744 37.3559 20.639C49.6552 21.3485 59.4271 31.5897 59.2973 43.4441C59.1458 55.7673 49.0796 65.9071 36.5207 66.1901C28.9147 66.4257 19.8146 66.4257 12.2902 66.4257C12.2901 66.0327 12.2856 66.1225 12.2899 64.9104C12.3246 50.4672 12.3347 36.024 12.3202 21.5808C12.3397 21.2818 12.3202 20.4743 12.3202 20.2424Z" fill="#237FDE"/>
<path d="M12.3297 13.9612C12.3295 13.8143 12.3296 13.6677 12.3296 13.5204C12.3296 8.37677 12.3296 10.7449 12.3296 8.37677C19.1565 8.40669 30.8898 8.32578 37.7167 8.53097C51.6676 8.95844 64.9523 19.6453 68.6904 33.2988C72.7806 48.286 67.6126 63.0253 54.9516 71.8654C49.1006 75.9521 42.49 77.88 35.3364 77.85C28.2244 77.8885 21.1792 77.8885 14.164 77.8885C12.5198 77.8885 12.5195 77.8885 12.3727 77.8885C12.3727 76.5659 12.4157 73.7036 12.4157 72.1817L14.4568 72.1817C21.6698 72.1817 28.9126 72.2929 36.1383 72.139C42.5947 72.0217 48.8244 69.721 53.8264 65.6065C58.8283 61.492 62.312 55.8027 63.7176 49.453C67.5023 32.9782 55.9402 16.2383 39.2314 14.4002C34.1059 13.8316 28.8913 14.1095 23.7149 14.0454C20.0957 13.9813 15.9617 13.9612 12.3297 13.9612Z" fill="#237FDE"/>
</svg>
